<svg width="47" height="47" viewBox="0 0 47 47" fill="none" xmlns="http://www.w3.org/2000/svg">
<path d="M41.0923 31.6361C39.3906 31.6361 38.6364 30.9786 37.5729 30.0504C36.3933 29.0448 34.9236 27.7686 32.1583 27.7686C29.3737 27.7686 27.9233 29.0448 26.7437 30.0504C25.6801 30.9786 24.9066 31.6361 23.2049 31.6361C21.5225 31.6361 20.749 30.9786 19.6854 30.0504C18.5058 29.0448 17.0362 27.7686 14.2709 27.7686C11.4863 27.7686 10.0166 29.0448 8.837 30.0504C7.77343 30.9786 7.01924 31.6361 5.31752 31.6361C4.52467 31.6361 3.86719 32.2936 3.86719 33.0864C3.86719 33.8986 4.52467 34.5368 5.31752 34.5368C8.10215 34.5368 9.55246 33.2798 10.7321 32.2549C11.7956 31.3267 12.5692 30.6692 14.2709 30.6692C15.9726 30.6692 16.7268 31.3267 17.7904 32.2549C18.97 33.2798 20.4396 34.5368 23.2049 34.5368C25.9896 34.5368 27.4592 33.2798 28.6388 32.2549C29.7024 31.3267 30.4566 30.6692 32.1583 30.6692C33.8407 30.6692 34.6142 31.3267 35.6778 32.2549C36.8574 33.2798 38.327 34.5368 41.0923 34.5368C41.8852 34.5368 42.5427 33.8986 42.5427 33.0864C42.5427 32.2936 41.8852 31.6361 41.0923 31.6361Z" fill="black"/>
<path d="M41.0923 23.6703C39.3906 23.6703 38.6364 22.9935 37.5729 22.0846C36.3933 21.0597 34.9236 19.8027 32.1583 19.8027C29.3737 19.8027 27.9233 21.0597 26.7437 22.0846C25.6801 22.9935 24.9066 23.6703 23.2049 23.6703C21.5225 23.6703 20.749 22.9935 19.6854 22.0846C18.5058 21.0597 17.0362 19.8027 14.2709 19.8027C11.4863 19.8027 10.0166 21.0597 8.837 22.0846C7.77343 22.9935 7.01924 23.6703 5.31752 23.6703C4.52467 23.6703 3.86719 24.3084 3.86719 25.1206C3.86719 25.9135 4.52467 26.5709 5.31752 26.5709C8.10215 26.5709 9.55246 25.2947 10.7321 24.2698C11.7956 23.3609 12.5692 22.7034 14.2709 22.7034C15.9726 22.7034 16.7268 23.3609 17.7904 24.2698C18.97 25.2947 20.4396 26.5709 23.2049 26.5709C25.9896 26.5709 27.4592 25.2947 28.6388 24.2698C29.7024 23.3609 30.4566 22.7034 32.1583 22.7034C33.8407 22.7034 34.6142 23.3609 35.6778 24.2698C36.8574 25.2947 38.327 26.5709 41.0923 26.5709C41.8852 26.5709 42.5427 25.9135 42.5427 25.1206C42.5427 24.3084 41.8852 23.6703 41.0923 23.6703Z" fill="black"/>
<path d="M5.31752 18.6413C8.10215 18.6413 9.55246 17.365 10.7321 16.3594C11.7956 15.4312 12.5692 14.7737 14.2709 14.7737C15.9726 14.7737 16.7268 15.4312 17.7904 16.3594C18.97 17.365 20.4396 18.6413 23.2049 18.6413C25.9896 18.6413 27.4592 17.365 28.6388 16.3594C29.7024 15.4312 30.4566 14.7737 32.1583 14.7737C33.8407 14.7737 34.6142 15.4312 35.6778 16.3594C36.8574 17.365 38.327 18.6413 41.0923 18.6413C41.8852 18.6413 42.5427 17.9838 42.5427 17.1909C42.5427 16.3787 41.8852 15.7406 41.0923 15.7406C39.3906 15.7406 38.6364 15.0831 37.5728 14.1549C36.3932 13.13 34.9236 11.873 32.1583 11.873C29.3737 11.873 27.9233 13.13 26.7437 14.1549C25.6801 15.0831 24.9066 15.7406 23.2049 15.7406C21.5225 15.7406 20.749 15.0831 19.6854 14.1549C18.5058 13.13 17.0362 11.873 14.2709 11.873C11.4863 11.873 10.0166 13.13 8.837 14.1549C7.77342 15.0831 7.01924 15.7406 5.31752 15.7406C4.52467 15.7406 3.86719 16.3787 3.86719 17.1909C3.86719 17.9838 4.52467 18.6413 5.31752 18.6413Z" fill="black"/>
</svg>
