<?xml version="1.0" encoding="UTF-8"?>
<!-- Generated by Pixelmator Pro 3.5.7 -->
<svg width="1000" height="1000" viewBox="0 0 1000 1000" xmlns="http://www.w3.org/2000/svg">
    <path id="Path" fill="#ffffff" stroke="none" d="M 874.30426 673.108521 C 838.097839 673.108521 822.051025 659.119141 799.423401 639.370239 C 774.3255 617.974487 743.055298 590.821289 684.219116 590.821289 C 624.972351 590.821289 594.112732 617.974487 569.014893 639.370239 C 546.385071 659.119141 529.927673 673.108521 493.721283 673.108521 C 457.925507 673.108521 441.468109 659.119141 418.838287 639.370239 C 393.740417 617.974487 362.472321 590.821289 303.636169 590.821289 C 244.389374 590.821289 213.119141 617.974487 188.021271 639.370239 C 165.39212 659.119141 149.345535 673.108521 113.138725 673.108521 C 96.269577 673.108521 82.28064 687.097839 82.28064 703.965942 C 82.28064 721.246826 96.269577 734.825562 113.138725 734.825562 C 172.386169 734.825562 203.24382 708.080872 228.342545 686.274536 C 250.970215 666.525513 267.429779 652.536194 303.636169 652.536194 C 339.84256 652.536194 355.889374 666.525513 378.519135 686.274536 C 403.617004 708.080872 434.885101 734.825562 493.721283 734.825562 C 552.970215 734.825562 584.238281 708.080872 609.336182 686.274536 C 631.965942 666.525513 648.012756 652.536194 684.219116 652.536194 C 720.014832 652.536194 736.472351 666.525513 759.102112 686.274536 C 784.199951 708.080872 815.468079 734.825562 874.30426 734.825562 C 891.1745 734.825562 905.163879 721.246826 905.163879 703.965942 C 905.163879 687.097839 891.1745 673.108521 874.30426 673.108521 Z"/>
    <path id="path1" fill="#ffffff" stroke="none" d="M 874.30426 503.623383 C 838.097839 503.623383 822.051025 489.223389 799.423401 469.885132 C 774.3255 448.078735 743.055298 421.334045 684.219116 421.334045 C 624.972351 421.334045 594.112732 448.078735 569.014893 469.885132 C 546.385071 489.223389 529.927673 503.623383 493.721283 503.623383 C 457.925507 503.623383 441.468109 489.223389 418.838287 469.885132 C 393.740417 448.078735 362.472321 421.334045 303.636169 421.334045 C 244.389374 421.334045 213.119141 448.078735 188.021271 469.885132 C 165.39212 489.223389 149.345535 503.623383 113.138725 503.623383 C 96.269577 503.623383 82.28064 517.199951 82.28064 534.480835 C 82.28064 551.351074 96.269577 565.338257 113.138725 565.338257 C 172.386169 565.338257 203.24382 538.18512 228.342545 516.378723 C 250.970215 497.040436 267.429779 483.051086 303.636169 483.051086 C 339.84256 483.051086 355.889374 497.040436 378.519135 516.378723 C 403.617004 538.18512 434.885101 565.338257 493.721283 565.338257 C 552.970215 565.338257 584.238281 538.18512 609.336182 516.378723 C 631.965942 497.040436 648.012756 483.051086 684.219116 483.051086 C 720.014832 483.051086 736.472351 497.040436 759.102112 516.378723 C 784.199951 538.18512 815.468079 565.338257 874.30426 565.338257 C 891.1745 565.338257 905.163879 551.351074 905.163879 534.480835 C 905.163879 517.199951 891.1745 503.623383 874.30426 503.623383 Z"/>
    <path id="path2" fill="#ffffff" stroke="none" d="M 113.138725 396.623413 C 172.386169 396.623413 203.24382 369.468079 228.342545 348.072327 C 250.970215 328.323425 267.429779 314.334045 303.636169 314.334045 C 339.84256 314.334045 355.889374 328.323425 378.519135 348.072327 C 403.617004 369.468079 434.885101 396.623413 493.721283 396.623413 C 552.970215 396.623413 584.238281 369.468079 609.336182 348.072327 C 631.965942 328.323425 648.012756 314.334045 684.219116 314.334045 C 720.014832 314.334045 736.472351 328.323425 759.102112 348.072327 C 784.199951 369.468079 815.468079 396.623413 874.30426 396.623413 C 891.1745 396.623413 905.163879 382.634033 905.163879 365.763855 C 905.163879 348.482971 891.1745 334.906372 874.30426 334.906372 C 838.097839 334.906372 822.051025 320.917053 799.421265 301.168091 C 774.323425 279.361694 743.055298 252.617004 684.219116 252.617004 C 624.972351 252.617004 594.112732 279.361694 569.014893 301.168091 C 546.385071 320.917053 529.927673 334.906372 493.721283 334.906372 C 457.925507 334.906372 441.468109 320.917053 418.838287 301.168091 C 393.740417 279.361694 362.472321 252.617004 303.636169 252.617004 C 244.389374 252.617004 213.119141 279.361694 188.021271 301.168091 C 165.391907 320.917053 149.345535 334.906372 113.138725 334.906372 C 96.269577 334.906372 82.28064 348.482971 82.28064 365.763855 C 82.28064 382.634033 96.269577 396.623413 113.138725 396.623413 Z"/>
</svg>
