<svg xmlns="http://www.w3.org/2000/svg" version="1.1" xmlns:xlink="http://www.w3.org/1999/xlink" xmlns:svgjs="http://svgjs.dev/svgjs" width="1000" height="1000"><style>
    #light-icon {
      display: inline;
    }
    #dark-icon {
      display: none;
    }

    @media (prefers-color-scheme: dark) {
      #light-icon {
        display: none;
      }
      #dark-icon {
        display: inline;
      }
    }
  </style><g id="light-icon"><svg xmlns="http://www.w3.org/2000/svg" version="1.1" xmlns:xlink="http://www.w3.org/1999/xlink" xmlns:svgjs="http://svgjs.dev/svgjs" width="1000" height="1000"><g><g transform="matrix(1,0,0,1,0,0)"><svg xmlns="http://www.w3.org/2000/svg" version="1.1" xmlns:xlink="http://www.w3.org/1999/xlink" xmlns:svgjs="http://svgjs.dev/svgjs" width="1000" height="1000"><svg width="1000" height="1000" viewBox="0 0 47 47" fill="#ffffff" xmlns="http://www.w3.org/2000/svg">
<path d="M41.0923 31.6361C39.3906 31.6361 38.6364 30.9786 37.5729 30.0504C36.3933 29.0448 34.9236 27.7686 32.1583 27.7686C29.3737 27.7686 27.9233 29.0448 26.7437 30.0504C25.6801 30.9786 24.9066 31.6361 23.2049 31.6361C21.5225 31.6361 20.749 30.9786 19.6854 30.0504C18.5058 29.0448 17.0362 27.7686 14.2709 27.7686C11.4863 27.7686 10.0166 29.0448 8.837 30.0504C7.77343 30.9786 7.01924 31.6361 5.31752 31.6361C4.52467 31.6361 3.86719 32.2936 3.86719 33.0864C3.86719 33.8986 4.52467 34.5368 5.31752 34.5368C8.10215 34.5368 9.55246 33.2798 10.7321 32.2549C11.7956 31.3267 12.5692 30.6692 14.2709 30.6692C15.9726 30.6692 16.7268 31.3267 17.7904 32.2549C18.97 33.2798 20.4396 34.5368 23.2049 34.5368C25.9896 34.5368 27.4592 33.2798 28.6388 32.2549C29.7024 31.3267 30.4566 30.6692 32.1583 30.6692C33.8407 30.6692 34.6142 31.3267 35.6778 32.2549C36.8574 33.2798 38.327 34.5368 41.0923 34.5368C41.8852 34.5368 42.5427 33.8986 42.5427 33.0864C42.5427 32.2936 41.8852 31.6361 41.0923 31.6361Z" fill="black"></path>
<path d="M41.0923 23.6703C39.3906 23.6703 38.6364 22.9935 37.5729 22.0846C36.3933 21.0597 34.9236 19.8027 32.1583 19.8027C29.3737 19.8027 27.9233 21.0597 26.7437 22.0846C25.6801 22.9935 24.9066 23.6703 23.2049 23.6703C21.5225 23.6703 20.749 22.9935 19.6854 22.0846C18.5058 21.0597 17.0362 19.8027 14.2709 19.8027C11.4863 19.8027 10.0166 21.0597 8.837 22.0846C7.77343 22.9935 7.01924 23.6703 5.31752 23.6703C4.52467 23.6703 3.86719 24.3084 3.86719 25.1206C3.86719 25.9135 4.52467 26.5709 5.31752 26.5709C8.10215 26.5709 9.55246 25.2947 10.7321 24.2698C11.7956 23.3609 12.5692 22.7034 14.2709 22.7034C15.9726 22.7034 16.7268 23.3609 17.7904 24.2698C18.97 25.2947 20.4396 26.5709 23.2049 26.5709C25.9896 26.5709 27.4592 25.2947 28.6388 24.2698C29.7024 23.3609 30.4566 22.7034 32.1583 22.7034C33.8407 22.7034 34.6142 23.3609 35.6778 24.2698C36.8574 25.2947 38.327 26.5709 41.0923 26.5709C41.8852 26.5709 42.5427 25.9135 42.5427 25.1206C42.5427 24.3084 41.8852 23.6703 41.0923 23.6703Z" fill="black"></path>
<path d="M5.31752 18.6413C8.10215 18.6413 9.55246 17.365 10.7321 16.3594C11.7956 15.4312 12.5692 14.7737 14.2709 14.7737C15.9726 14.7737 16.7268 15.4312 17.7904 16.3594C18.97 17.365 20.4396 18.6413 23.2049 18.6413C25.9896 18.6413 27.4592 17.365 28.6388 16.3594C29.7024 15.4312 30.4566 14.7737 32.1583 14.7737C33.8407 14.7737 34.6142 15.4312 35.6778 16.3594C36.8574 17.365 38.327 18.6413 41.0923 18.6413C41.8852 18.6413 42.5427 17.9838 42.5427 17.1909C42.5427 16.3787 41.8852 15.7406 41.0923 15.7406C39.3906 15.7406 38.6364 15.0831 37.5728 14.1549C36.3932 13.13 34.9236 11.873 32.1583 11.873C29.3737 11.873 27.9233 13.13 26.7437 14.1549C25.6801 15.0831 24.9066 15.7406 23.2049 15.7406C21.5225 15.7406 20.749 15.0831 19.6854 14.1549C18.5058 13.13 17.0362 11.873 14.2709 11.873C11.4863 11.873 10.0166 13.13 8.837 14.1549C7.77342 15.0831 7.01924 15.7406 5.31752 15.7406C4.52467 15.7406 3.86719 16.3787 3.86719 17.1909C3.86719 17.9838 4.52467 18.6413 5.31752 18.6413Z" fill="black"></path>
</svg></svg></g></g></svg></g><g id="dark-icon"><svg xmlns="http://www.w3.org/2000/svg" version="1.1" xmlns:xlink="http://www.w3.org/1999/xlink" xmlns:svgjs="http://svgjs.dev/svgjs" width="1000" height="1000"><g><g transform="matrix(1,0,0,1,0,0)"><svg xmlns="http://www.w3.org/2000/svg" version="1.1" xmlns:xlink="http://www.w3.org/1999/xlink" xmlns:svgjs="http://svgjs.dev/svgjs" width="1000" height="1000"><svg width="1000" height="1000" viewBox="0 0 1000 1000" xmlns="http://www.w3.org/2000/svg">
    <path id="Path" fill="#ffffff" stroke="none" d="M 874.30426 673.108521 C 838.097839 673.108521 822.051025 659.119141 799.423401 639.370239 C 774.3255 617.974487 743.055298 590.821289 684.219116 590.821289 C 624.972351 590.821289 594.112732 617.974487 569.014893 639.370239 C 546.385071 659.119141 529.927673 673.108521 493.721283 673.108521 C 457.925507 673.108521 441.468109 659.119141 418.838287 639.370239 C 393.740417 617.974487 362.472321 590.821289 303.636169 590.821289 C 244.389374 590.821289 213.119141 617.974487 188.021271 639.370239 C 165.39212 659.119141 149.345535 673.108521 113.138725 673.108521 C 96.269577 673.108521 82.28064 687.097839 82.28064 703.965942 C 82.28064 721.246826 96.269577 734.825562 113.138725 734.825562 C 172.386169 734.825562 203.24382 708.080872 228.342545 686.274536 C 250.970215 666.525513 267.429779 652.536194 303.636169 652.536194 C 339.84256 652.536194 355.889374 666.525513 378.519135 686.274536 C 403.617004 708.080872 434.885101 734.825562 493.721283 734.825562 C 552.970215 734.825562 584.238281 708.080872 609.336182 686.274536 C 631.965942 666.525513 648.012756 652.536194 684.219116 652.536194 C 720.014832 652.536194 736.472351 666.525513 759.102112 686.274536 C 784.199951 708.080872 815.468079 734.825562 874.30426 734.825562 C 891.1745 734.825562 905.163879 721.246826 905.163879 703.965942 C 905.163879 687.097839 891.1745 673.108521 874.30426 673.108521 Z"></path>
    <path id="path1" fill="#ffffff" stroke="none" d="M 874.30426 503.623383 C 838.097839 503.623383 822.051025 489.223389 799.423401 469.885132 C 774.3255 448.078735 743.055298 421.334045 684.219116 421.334045 C 624.972351 421.334045 594.112732 448.078735 569.014893 469.885132 C 546.385071 489.223389 529.927673 503.623383 493.721283 503.623383 C 457.925507 503.623383 441.468109 489.223389 418.838287 469.885132 C 393.740417 448.078735 362.472321 421.334045 303.636169 421.334045 C 244.389374 421.334045 213.119141 448.078735 188.021271 469.885132 C 165.39212 489.223389 149.345535 503.623383 113.138725 503.623383 C 96.269577 503.623383 82.28064 517.199951 82.28064 534.480835 C 82.28064 551.351074 96.269577 565.338257 113.138725 565.338257 C 172.386169 565.338257 203.24382 538.18512 228.342545 516.378723 C 250.970215 497.040436 267.429779 483.051086 303.636169 483.051086 C 339.84256 483.051086 355.889374 497.040436 378.519135 516.378723 C 403.617004 538.18512 434.885101 565.338257 493.721283 565.338257 C 552.970215 565.338257 584.238281 538.18512 609.336182 516.378723 C 631.965942 497.040436 648.012756 483.051086 684.219116 483.051086 C 720.014832 483.051086 736.472351 497.040436 759.102112 516.378723 C 784.199951 538.18512 815.468079 565.338257 874.30426 565.338257 C 891.1745 565.338257 905.163879 551.351074 905.163879 534.480835 C 905.163879 517.199951 891.1745 503.623383 874.30426 503.623383 Z"></path>
    <path id="path2" fill="#ffffff" stroke="none" d="M 113.138725 396.623413 C 172.386169 396.623413 203.24382 369.468079 228.342545 348.072327 C 250.970215 328.323425 267.429779 314.334045 303.636169 314.334045 C 339.84256 314.334045 355.889374 328.323425 378.519135 348.072327 C 403.617004 369.468079 434.885101 396.623413 493.721283 396.623413 C 552.970215 396.623413 584.238281 369.468079 609.336182 348.072327 C 631.965942 328.323425 648.012756 314.334045 684.219116 314.334045 C 720.014832 314.334045 736.472351 328.323425 759.102112 348.072327 C 784.199951 369.468079 815.468079 396.623413 874.30426 396.623413 C 891.1745 396.623413 905.163879 382.634033 905.163879 365.763855 C 905.163879 348.482971 891.1745 334.906372 874.30426 334.906372 C 838.097839 334.906372 822.051025 320.917053 799.421265 301.168091 C 774.323425 279.361694 743.055298 252.617004 684.219116 252.617004 C 624.972351 252.617004 594.112732 279.361694 569.014893 301.168091 C 546.385071 320.917053 529.927673 334.906372 493.721283 334.906372 C 457.925507 334.906372 441.468109 320.917053 418.838287 301.168091 C 393.740417 279.361694 362.472321 252.617004 303.636169 252.617004 C 244.389374 252.617004 213.119141 279.361694 188.021271 301.168091 C 165.391907 320.917053 149.345535 334.906372 113.138725 334.906372 C 96.269577 334.906372 82.28064 348.482971 82.28064 365.763855 C 82.28064 382.634033 96.269577 396.623413 113.138725 396.623413 Z"></path>
</svg></svg></g></g></svg></g></svg>